<svg width="66" height="47" viewBox="0 0 66 47" fill="none" xmlns="http://www.w3.org/2000/svg">
<path d="M58.5733 0.517334C60.543 0.517334 62.432 1.29712 63.8248 2.68513C65.2177 4.07315 66.0001 5.95571 66.0001 7.91867V39.1852C66.0001 41.1481 65.2177 43.0307 63.8248 44.4187C62.432 45.8067 60.543 46.5865 58.5733 46.5865H7.42698C6.45167 46.5865 5.48591 46.3951 4.58484 46.0231C3.68378 45.6512 2.86505 45.106 2.1754 44.4187C1.48575 43.7314 0.938692 42.9155 0.565458 42.0175C0.192223 41.1196 0.00012207 40.1571 0.00012207 39.1852V7.91867C0.00012207 5.95571 0.782592 4.07315 2.1754 2.68513C3.5682 1.29712 5.45725 0.517334 7.42698 0.517334H58.5733V0.517334ZM58.5733 5.45156H7.42698C6.7704 5.45156 6.14072 5.71148 5.67645 6.17415C5.21218 6.63683 4.95136 7.26435 4.95136 7.91867V39.1852C4.95136 40.547 6.06044 41.6523 7.42698 41.6523H58.5733C59.2298 41.6523 59.8595 41.3924 60.3238 40.9297C60.7881 40.467 61.0489 39.8395 61.0489 39.1852V7.91867C61.0489 7.26435 60.7881 6.63683 60.3238 6.17415C59.8595 5.71148 59.2298 5.45156 58.5733 5.45156V5.45156ZM15.679 31.7674H50.3377C50.9649 31.7676 51.5687 32.005 52.027 32.4318C52.4854 32.8585 52.7641 33.4427 52.8068 34.0664C52.8496 34.69 52.6532 35.3065 52.2574 35.7914C51.8615 36.2763 51.2958 36.5934 50.6744 36.6786L50.3377 36.7016H15.679C15.0518 36.7014 14.448 36.464 13.9897 36.0372C13.5314 35.6105 13.2527 35.0263 13.2099 34.4027C13.1672 33.779 13.3636 33.1625 13.7594 32.6776C14.1552 32.1927 14.721 31.8756 15.3424 31.7904L15.679 31.7674H50.3377H15.679V31.7674ZM47.8621 20.2542C48.7375 20.2542 49.5771 20.6008 50.1961 21.2177C50.8151 21.8346 51.1629 22.6713 51.1629 23.5437C51.1629 24.4161 50.8151 25.2528 50.1961 25.8697C49.5771 26.4866 48.7375 26.8332 47.8621 26.8332C46.9867 26.8332 46.1471 26.4866 45.5281 25.8697C44.909 25.2528 44.5613 24.4161 44.5613 23.5437C44.5613 22.6713 44.909 21.8346 45.5281 21.2177C46.1471 20.6008 46.9867 20.2542 47.8621 20.2542ZM28.0736 20.2542C28.9491 20.2542 29.7887 20.6008 30.4077 21.2177C31.0267 21.8346 31.3745 22.6713 31.3745 23.5437C31.3745 24.4161 31.0267 25.2528 30.4077 25.8697C29.7887 26.4866 28.9491 26.8332 28.0736 26.8332C27.1982 26.8332 26.3586 26.4866 25.7396 25.8697C25.1206 25.2528 24.7728 24.4161 24.7728 23.5437C24.7728 22.6713 25.1206 21.8346 25.7396 21.2177C26.3586 20.6008 27.1982 20.2542 28.0736 20.2542V20.2542ZM18.1712 20.2542C19.0466 20.2542 19.8862 20.6008 20.5052 21.2177C21.1242 21.8346 21.472 22.6713 21.472 23.5437C21.472 24.4161 21.1242 25.2528 20.5052 25.8697C19.8862 26.4866 19.0466 26.8332 18.1712 26.8332C17.2957 26.8332 16.4562 26.4866 15.8371 25.8697C15.2181 25.2528 14.8703 24.4161 14.8703 23.5437C14.8703 22.6713 15.2181 21.8346 15.8371 21.2177C16.4562 20.6008 17.2957 20.2542 18.1712 20.2542ZM37.9761 20.2542C38.8515 20.2542 39.6911 20.6008 40.3102 21.2177C40.9292 21.8346 41.2769 22.6713 41.2769 23.5437C41.2769 24.4161 40.9292 25.2528 40.3102 25.8697C39.6911 26.4866 38.8515 26.8332 37.9761 26.8332C37.1007 26.8332 36.2611 26.4866 35.6421 25.8697C35.0231 25.2528 34.6753 24.4161 34.6753 23.5437C34.6753 22.6713 35.0231 21.8346 35.6421 21.2177C36.2611 20.6008 37.1007 20.2542 37.9761 20.2542V20.2542ZM13.2034 10.3858C14.0789 10.3858 14.9184 10.7323 15.5375 11.3492C16.1565 11.9661 16.5042 12.8028 16.5042 13.6753C16.5042 14.5477 16.1565 15.3844 15.5375 16.0013C14.9184 16.6182 14.0789 16.9647 13.2034 16.9647C12.328 16.9647 11.4884 16.6182 10.8694 16.0013C10.2504 15.3844 9.9026 14.5477 9.9026 13.6753C9.9026 12.8028 10.2504 11.9661 10.8694 11.3492C11.4884 10.7323 12.328 10.3858 13.2034 10.3858ZM23.0894 10.3858C23.9648 10.3858 24.8044 10.7323 25.4234 11.3492C26.0425 11.9661 26.3902 12.8028 26.3902 13.6753C26.3902 14.5477 26.0425 15.3844 25.4234 16.0013C24.8044 16.6182 23.9648 16.9647 23.0894 16.9647C22.214 16.9647 21.3744 16.6182 20.7554 16.0013C20.1363 15.3844 19.7886 14.5477 19.7886 13.6753C19.7886 12.8028 20.1363 11.9661 20.7554 11.3492C21.3744 10.7323 22.214 10.3858 23.0894 10.3858V10.3858ZM32.9919 10.3858C33.8673 10.3858 34.7069 10.7323 35.3259 11.3492C35.9449 11.9661 36.2927 12.8028 36.2927 13.6753C36.2927 14.5477 35.9449 15.3844 35.3259 16.0013C34.7069 16.6182 33.8673 16.9647 32.9919 16.9647C32.1164 16.9647 31.2769 16.6182 30.6578 16.0013C30.0388 15.3844 29.691 14.5477 29.691 13.6753C29.691 12.8028 30.0388 11.9661 30.6578 11.3492C31.2769 10.7323 32.1164 10.3858 32.9919 10.3858V10.3858ZM42.8943 10.3858C43.7698 10.3858 44.6094 10.7323 45.2284 11.3492C45.8474 11.9661 46.1952 12.8028 46.1952 13.6753C46.1952 14.5477 45.8474 15.3844 45.2284 16.0013C44.6094 16.6182 43.7698 16.9647 42.8943 16.9647C42.0189 16.9647 41.1793 16.6182 40.5603 16.0013C39.9413 15.3844 39.5935 14.5477 39.5935 13.6753C39.5935 12.8028 39.9413 11.9661 40.5603 11.3492C41.1793 10.7323 42.0189 10.3858 42.8943 10.3858V10.3858ZM52.7968 10.3858C53.6723 10.3858 54.5118 10.7323 55.1309 11.3492C55.7499 11.9661 56.0976 12.8028 56.0976 13.6753C56.0976 14.5477 55.7499 15.3844 55.1309 16.0013C54.5118 16.6182 53.6723 16.9647 52.7968 16.9647C51.9214 16.9647 51.0818 16.6182 50.4628 16.0013C49.8438 15.3844 49.496 14.5477 49.496 13.6753C49.496 12.8028 49.8438 11.9661 50.4628 11.3492C51.0818 10.7323 51.9214 10.3858 52.7968 10.3858Z" fill="#EC7979"/>
</svg>
