<svg width="74" height="73" viewBox="0 0 74 73" fill="none" xmlns="http://www.w3.org/2000/svg">
<path d="M28.5232 54.7154H45.4733H28.5232ZM37 3.85767V7.49036V3.85767ZM60.0838 13.4334L57.5193 16.0018L60.0838 13.4334ZM69.6452 36.5519H66.0179H69.6452ZM7.9821 36.5519H4.35486H7.9821ZM16.4807 16.0018L13.9163 13.4334L16.4807 16.0018ZM24.1741 49.3971C21.6382 46.8567 19.9114 43.6203 19.212 40.0971C18.5126 36.5738 18.872 32.922 20.2448 29.6033C21.6176 26.2847 23.9422 23.4482 26.9246 21.4526C29.907 19.457 33.4132 18.3918 37 18.3918C40.5868 18.3918 44.0931 19.457 47.0755 21.4526C50.0578 23.4482 52.3824 26.2847 53.7552 29.6033C55.1281 32.922 55.4875 36.5738 54.7881 40.0971C54.0887 43.6203 52.3619 46.8567 49.8259 49.3971L47.8382 51.3842C46.7018 52.5225 45.8005 53.8738 45.1856 55.361C44.5707 56.8482 44.2543 58.4422 44.2545 60.0518V61.9808C44.2545 63.9077 43.4902 65.7557 42.1297 67.1182C40.7692 68.4807 38.924 69.2462 37 69.2462C35.076 69.2462 33.2308 68.4807 31.8703 67.1182C30.5099 65.7557 29.7455 63.9077 29.7455 61.9808V60.0518C29.7455 56.8006 28.4542 53.6801 26.1618 51.3842L24.1741 49.3971Z" stroke="#EC7979" stroke-width="6.83333" stroke-linecap="round" stroke-linejoin="round"/>
</svg>
