<svg width="44" height="67" viewBox="0 0 44 67" fill="none" xmlns="http://www.w3.org/2000/svg">
<path d="M10.7308 66.4127C10.2572 66.2087 9.86369 65.8498 9.61227 65.3924C9.36084 64.935 9.26586 64.4053 9.34231 63.8868L13.5542 35.913H2.37647C2.0221 35.9227 1.67028 35.8492 1.34815 35.6983C1.02602 35.5473 0.742197 35.3229 0.518571 35.0423C0.294944 34.7618 0.137497 34.4325 0.0583768 34.08C-0.0207433 33.7276 -0.0194209 33.3612 0.0622413 33.0094L7.00493 2.32081C7.1271 1.79266 7.42391 1.32357 7.84542 0.992498C8.26692 0.661429 8.78737 0.4886 9.31916 0.503102H32.4615C32.8072 0.501903 33.1488 0.579738 33.4612 0.730887C33.7735 0.882037 34.0488 1.10266 34.2666 1.37655C34.4875 1.65352 34.6439 1.97801 34.724 2.32557C34.8042 2.67313 34.806 3.03471 34.7294 3.3831L30.7258 21.749H41.7184C42.1521 21.7481 42.5774 21.8716 42.9456 22.1053C43.3139 22.3391 43.6104 22.6737 43.8012 23.071C43.967 23.4523 44.0308 23.8717 43.9861 24.2863C43.9414 24.701 43.7898 25.0962 43.5466 25.4316L13.4616 65.5628C13.2583 65.8703 12.9868 66.1245 12.6692 66.305C12.3515 66.4855 11.9967 66.587 11.6334 66.6015C11.3237 66.5956 11.0178 66.5316 10.7308 66.4127V66.4127ZM24.9402 26.4703L29.5687 5.22442H11.1705L5.2924 31.1916H18.9695L15.2899 55.4592L37.0899 26.4703H24.9402Z" fill="#EC7979"/>
</svg>
